<?xml version="1.0" encoding="UTF-8"?>
<svg version="1.1" xmlns="http://www.w3.org/2000/svg" width="512" height="512">
<path d="M0 0 C0.65062912 -0.00287018 1.30125824 -0.00574036 1.97160339 -0.00869751 C3.35436875 -0.01073941 4.73716291 -0.00520062 6.11987305 0.00732422 C8.1854372 0.02309371 10.24895773 0.00763364 12.31445312 -0.01171875 C32.60542062 -0.04462623 51.26735605 6.27882744 66.3828125 20.21484375 C76.99279086 31.59867849 83.62722556 44.55341867 85.94140625 59.96875 C86.06643021 60.78217361 86.19145416 61.59559723 86.32026672 62.43367004 C87.82435389 72.60855419 88.70933121 82.8432502 89.60546875 93.0859375 C89.78392284 95.07101598 89.96295657 97.05604244 90.14257812 99.04101562 C90.57435893 103.82625264 90.99840823 108.6121142 91.41796875 113.3984375 C92.11667347 113.39691862 92.8153782 113.39539974 93.53525579 113.39383483 C134.95409156 113.30430577 176.3729161 113.23568279 217.79182919 113.19417618 C222.76600478 113.18917341 227.74018017 113.18399611 232.71435547 113.17871094 C233.70461647 113.1776617 234.69487747 113.17661245 235.71514638 113.17553142 C251.74540683 113.15813028 267.77560985 113.12659418 283.80583625 113.08982632 C300.25660148 113.05240881 316.70733665 113.03019993 333.15814269 113.02208352 C343.30766271 113.01659744 353.4570204 112.99927544 363.60649045 112.96677163 C370.56812019 112.94561377 377.52966611 112.93924034 384.49132566 112.94443199 C388.50675419 112.94699179 392.52189921 112.94309162 396.53727722 112.9216156 C400.21782503 112.90207466 403.89790009 112.90121584 407.57847019 112.91484192 C409.53156954 112.91731819 411.48466377 112.90013391 413.43768156 112.88211226 C423.78451447 112.95216015 431.93354168 115.13796137 439.59375 122.33203125 C447.57181297 131.36928031 448.99100729 139.6046254 448.55873871 151.30472183 C448.14271543 157.49236628 446.72622616 163.5490854 445.42578125 169.59765625 C445.11554905 171.09097558 444.80648026 172.58453702 444.49850464 174.07832336 C443.8568782 177.17521319 443.2056693 180.26985879 442.54638672 183.36303711 C441.70275248 187.32206275 440.87743581 191.28462782 440.05835152 195.24879742 C439.42319225 198.31843351 438.78184598 201.3867481 438.13827133 204.4546299 C437.83174367 205.91640141 437.52636325 207.37841399 437.22217178 208.84067345 C436.79729508 210.87512186 436.36490837 212.90782348 435.93017578 214.94018555 C435.56377487 216.67101631 435.56377487 216.67101631 435.18997192 218.43681335 C434.50681948 221.05758079 433.9228711 223.15197304 432.41796875 225.3984375 C429.29296875 226.1484375 429.29296875 226.1484375 426.41796875 226.3984375 C426.31613281 227.58695313 426.21429688 228.77546875 426.109375 230 C425.36637194 236.69095875 423.81816449 243.20997218 422.35546875 249.7734375 C421.79930362 252.280635 421.24578604 254.78842172 420.6953125 257.296875 C420.32780884 258.94695557 420.32780884 258.94695557 419.95288086 260.63037109 C419.32310185 263.41947579 419.32310185 263.41947579 419.41796875 266.3984375 C420.40796875 267.0584375 421.39796875 267.7184375 422.41796875 268.3984375 C424.0063825 272.75274583 422.99119516 276.6212289 421.85546875 280.9609375 C421.67056885 281.66766602 421.48566895 282.37439453 421.29516602 283.10253906 C416.82833396 299.28634187 407.03275385 311.97635795 392.41796875 320.3984375 C381.79257661 326.03517035 372.38612446 327.70107363 360.43814087 327.6499939 C359.25806564 327.65296404 358.07799041 327.65593417 356.86215532 327.65899432 C353.60862076 327.66528378 350.35523365 327.66275082 347.10170364 327.65647554 C343.58422752 327.65192213 340.06677276 327.65899216 336.54930115 327.66477966 C330.45985759 327.67339465 324.37044308 327.67522513 318.28099442 327.67283249 C309.46479777 327.66972833 300.64866505 327.68139655 291.83248453 327.69738229 C277.51137562 327.72332049 263.19026666 327.74335151 248.86914062 327.75683594 C247.58467151 327.75805149 247.58467151 327.75805149 246.27425353 327.7592916 C234.12303187 327.77051241 221.97181478 327.77579445 209.82058863 327.77867873 C208.96488228 327.77888272 208.10917592 327.77908671 207.22753906 327.77929688 C205.9455524 327.77959678 205.9455524 327.77959678 204.63766702 327.77990274 C190.37088766 327.78363945 176.10417778 327.80274931 161.83743322 327.83439124 C153.04699624 327.85327307 144.25673768 327.85928759 135.46628605 327.84857406 C129.44007063 327.84224112 123.4139829 327.85033432 117.38779546 327.86962818 C113.91495899 327.88027892 110.44243286 327.88451511 106.96959877 327.87115669 C103.19669012 327.8600137 99.42462153 327.87349424 95.65176392 327.89291382 C94.02230833 327.87922683 94.02230833 327.87922683 92.35993445 327.86526334 C84.05181343 327.94821191 75.87241439 329.54732463 69.04296875 334.5859375 C62.03662127 342.09273837 59.97794459 349.65359388 60.08203125 359.75 C60.76324911 367.14834278 63.9237086 372.32184242 69.29296875 377.3359375 C76.21386559 382.86484945 83.381212 384.51940758 92.17666912 384.52872276 C93.87429348 384.53415928 93.87429348 384.53415928 95.60621327 384.53970563 C96.83957521 384.53863738 98.07293716 384.53756913 99.34367371 384.53646851 C100.66158742 384.53928979 101.97950113 384.54211107 103.33735162 384.54501784 C106.9893143 384.55275393 110.64125817 384.55438933 114.29322803 384.55506897 C118.23391786 384.55691164 122.17459676 384.56451994 126.11528015 384.57154846 C132.9414322 384.58306424 139.76758178 384.59131347 146.59374046 384.59766769 C157.37804669 384.60799702 168.16232216 384.62855976 178.9466095 384.65078735 C182.6361226 384.65826651 186.32563584 384.66568026 190.01514912 384.67307472 C190.93710968 384.67492529 191.85907025 384.67677585 192.80896902 384.6786825 C203.29899394 384.69960126 213.78902224 384.7184354 224.27905273 384.73632812 C225.71724976 384.7387854 225.71724976 384.7387854 227.18450127 384.74129231 C242.74055069 384.76760758 258.2966025 384.78623569 273.85266479 384.80292003 C289.81884247 384.82032117 305.78497338 384.8491419 321.75111371 384.8878094 C331.60311594 384.91124126 341.45504195 384.92520681 351.30707226 384.92713703 C358.05182372 384.92924126 364.7964992 384.94212712 371.54121657 384.96361636 C375.43626182 384.97568066 379.33115619 384.98277332 383.22621918 384.97690392 C387.44203361 384.97066458 391.65743903 384.98736642 395.87321472 385.00643921 C397.73329588 384.99814467 397.73329588 384.99814467 399.63095444 384.98968256 C400.75488077 384.9985224 401.8788071 385.00736224 403.0367918 385.01646996 C404.01055978 385.01782648 404.98432775 385.01918301 405.98760384 385.02058065 C408.41796875 385.3984375 408.41796875 385.3984375 410.23085481 386.73481047 C412.07731999 389.32245541 411.80318419 391.316714 411.41796875 394.3984375 C410.41870117 396.05395508 410.41870117 396.05395508 408.41796875 397.3984375 C405.55531415 397.72964292 402.89830271 397.88707842 400.03125 397.91015625 C399.21424118 397.92810745 398.39723236 397.94605865 397.5554657 397.96455383 C394.94718581 398.01871538 392.3390895 398.05257058 389.73046875 398.0859375 C387.96156296 398.11910549 386.19268142 398.15359467 384.42382812 398.18945312 C380.08867402 398.27444496 375.75357491 398.34122785 371.41796875 398.3984375 C371.89645264 398.99954346 372.37493652 399.60064941 372.86791992 400.2199707 C373.49674072 401.01749756 374.12556152 401.81502441 374.7734375 402.63671875 C375.39629639 403.42344971 376.01915527 404.21018066 376.66088867 405.02075195 C384.53647066 415.67801094 386.5478317 428.53156031 384.85546875 441.5234375 C382.14065237 454.95463432 374.22252511 465.77848583 362.91796875 473.3359375 C351.53834372 480.02520532 339.00331275 482.02617561 326 479.11328125 C313.3250318 475.60417508 303.4939361 468.63356124 296.41796875 457.3984375 C290.03063834 445.18785261 288.44813231 432.65108019 291.06640625 419.0234375 C293.57581426 411.645349 297.89110391 403.92530234 303.41796875 398.3984375 C259.19796875 398.3984375 214.97796875 398.3984375 169.41796875 398.3984375 C171.72796875 401.0384375 174.03796875 403.6784375 176.41796875 406.3984375 C183.68591286 417.84087582 185.23980437 430.8338005 182.73046875 444.0078125 C180.7551117 451.02033003 177.83950088 456.64072808 173.41796875 462.3984375 C172.84046875 463.2646875 172.26296875 464.1309375 171.66796875 465.0234375 C163.15610324 474.00818442 151.6810854 479.36725693 139.41796875 480.3984375 C124.19596863 480.55464959 112.23133419 475.98756893 101.16796875 465.5859375 C92.6303084 456.6078423 88.31559267 444.72477895 87.91796875 432.3984375 C88.34627276 419.54931714 93.02727136 407.32364774 102.41796875 398.3984375 C101.7537793 398.39432861 101.08958984 398.39021973 100.40527344 398.38598633 C83.14746335 398.19892196 69.5973252 397.42180293 56.73828125 384.7421875 C48.12832993 375.31836019 45.70720471 364.27464147 46.05078125 351.76171875 C46.74927427 340.41987643 52.11788166 331.87257792 60.41796875 324.3984375 C70.05614331 316.67480695 79.49541654 314.33739338 91.68359375 314.37890625 C93.29669434 314.38313599 93.29669434 314.38313599 94.94238281 314.38745117 C95.75932617 314.39107666 96.57626953 314.39470215 97.41796875 314.3984375 C94.39871173 283.53515439 91.37576978 252.67223489 88.34772492 221.80981283 C87.98976462 218.16137855 87.63183554 214.5129412 87.27392578 210.86450195 C87.20267565 210.13820198 87.13142551 209.41190202 87.05801629 208.66359296 C85.90632688 196.922892 84.75716412 185.18194505 83.60894455 173.4409043 C82.42960353 161.38221756 81.2475253 149.32380137 80.06293666 137.26562899 C79.39811892 130.49751324 78.73454174 123.72928074 78.07413101 116.96073341 C77.45180254 110.58377754 76.82608421 104.20716317 76.19781876 97.83078957 C75.96841934 95.49655257 75.74023483 93.1621958 75.51338959 90.8277092 C72.55926686 55.91826841 72.55926686 55.91826841 53.41796875 27.3984375 C38.74013781 16.41177706 25.01224811 14.10590401 7.04272461 13.94213867 C5.04653839 13.92049013 3.0505788 13.88041467 1.0546875 13.83984375 C-0.71322144 13.81966187 -0.71322144 13.81966187 -2.5168457 13.79907227 C-5.84779542 13.36370082 -7.27602533 12.81686339 -9.58203125 10.3984375 C-10.31749303 4.5147433 -10.31749303 4.5147433 -8.46606445 1.70458984 C-5.66472009 -0.23751102 -3.38198604 0.00958522 0 0 Z " fill="#FBDFCA" transform="translate(36.58203125,18.6015625)"/>
<path d="M0 0 C0.65062912 -0.00287018 1.30125824 -0.00574036 1.97160339 -0.00869751 C3.35436875 -0.01073941 4.73716291 -0.00520062 6.11987305 0.00732422 C8.1854372 0.02309371 10.24895773 0.00763364 12.31445312 -0.01171875 C32.60542062 -0.04462623 51.26735605 6.27882744 66.3828125 20.21484375 C76.99279086 31.59867849 83.62722556 44.55341867 85.94140625 59.96875 C86.06643021 60.78217361 86.19145416 61.59559723 86.32026672 62.43367004 C87.82435389 72.60855419 88.70933121 82.8432502 89.60546875 93.0859375 C89.78392284 95.07101598 89.96295657 97.05604244 90.14257812 99.04101562 C90.57435893 103.82625264 90.99840823 108.6121142 91.41796875 113.3984375 C92.11667347 113.39691862 92.8153782 113.39539974 93.53525579 113.39383483 C134.95409156 113.30430577 176.3729161 113.23568279 217.79182919 113.19417618 C222.76600478 113.18917341 227.74018017 113.18399611 232.71435547 113.17871094 C233.70461647 113.1776617 234.69487747 113.17661245 235.71514638 113.17553142 C251.74540683 113.15813028 267.77560985 113.12659418 283.80583625 113.08982632 C300.25660148 113.05240881 316.70733665 113.03019993 333.15814269 113.02208352 C343.30766271 113.01659744 353.4570204 112.99927544 363.60649045 112.96677163 C370.56812019 112.94561377 377.52966611 112.93924034 384.49132566 112.94443199 C388.50675419 112.94699179 392.52189921 112.94309162 396.53727722 112.9216156 C400.21782503 112.90207466 403.89790009 112.90121584 407.57847019 112.91484192 C409.53156954 112.91731819 411.48466377 112.90013391 413.43768156 112.88211226 C423.78451447 112.95216015 431.93354168 115.13796137 439.59375 122.33203125 C447.57181297 131.36928031 448.99100729 139.6046254 448.55873871 151.30472183 C448.14271543 157.49236628 446.72622616 163.5490854 445.42578125 169.59765625 C445.11554905 171.09097558 444.80648026 172.58453702 444.49850464 174.07832336 C443.8568782 177.17521319 443.2056693 180.26985879 442.54638672 183.36303711 C441.70275248 187.32206275 440.87743581 191.28462782 440.05835152 195.24879742 C439.42319225 198.31843351 438.78184598 201.3867481 438.13827133 204.4546299 C437.83174367 205.91640141 437.52636325 207.37841399 437.22217178 208.84067345 C436.79729508 210.87512186 436.36490837 212.90782348 435.93017578 214.94018555 C435.56377487 216.67101631 435.56377487 216.67101631 435.18997192 218.43681335 C434.50520887 221.06375953 433.93087908 223.15045282 432.41796875 225.3984375 C429.04296875 226.3984375 429.04296875 226.3984375 425.41796875 226.3984375 C422.91796875 225.0234375 422.91796875 225.0234375 421.41796875 222.3984375 C421.90373008 214.65810936 423.56139618 207.1111716 425.10546875 199.5234375 C425.37071399 198.20703672 425.63593165 196.89063038 425.90112305 195.57421875 C427.97119686 185.35513175 430.19309779 175.17261535 432.50073242 165.00439453 C432.85615112 163.4360083 432.85615112 163.4360083 433.21875 161.8359375 C433.42669189 160.92714844 433.63463379 160.01835937 433.84887695 159.08203125 C435.817192 149.8002985 437.18427428 141.71516302 431.98828125 133.3125 C429.50695862 130.28800227 426.96811167 129.00604939 423.41796875 127.3984375 C422.75796875 127.0684375 422.09796875 126.7384375 421.41796875 126.3984375 C419.6253847 126.29914367 417.82908377 126.26455073 416.03375816 126.2597723 C414.88373892 126.25429786 413.73371968 126.24882341 412.54885137 126.24318308 C411.27455506 126.24220497 410.00025876 126.24122686 408.68734741 126.24021912 C407.32856049 126.23565599 405.96977497 126.23065634 404.61099112 126.22525555 C400.86439511 126.21163657 397.11780821 126.20424525 393.37119389 126.19782889 C389.33573395 126.18984141 385.30029307 126.17613798 381.2648468 126.16311646 C374.26892059 126.1413302 367.27299247 126.12319359 360.27705002 126.10751152 C350.16199848 126.08483243 340.04696801 126.05668691 329.93193431 126.02719224 C313.5223405 125.97949225 297.11273809 125.9362346 280.703125 125.89575195 C264.75943329 125.85640926 248.81574923 125.81498599 232.87207031 125.77075195 C231.39877617 125.76666554 231.39877617 125.76666554 229.8957185 125.76249658 C224.96850023 125.74881731 220.04128208 125.73509699 215.11406398 125.72135627 C174.2153815 125.60735369 133.31668253 125.50055271 92.41796875 125.3984375 C92.50972728 126.34972094 92.60148581 127.30100437 92.69602489 128.28111458 C93.58073848 137.45339159 94.46527097 146.62568605 95.34964627 155.79799569 C95.80380882 160.50829311 96.25802533 165.21858531 96.71238708 169.92886353 C99.38196211 197.60442267 102.03802585 225.28124684 104.67737389 252.95970535 C104.75059254 253.72752586 104.8238112 254.49534637 104.8992486 255.28643417 C105.03672236 256.72822056 105.17417105 258.17000933 105.31158781 259.61180115 C106.26885583 269.65253281 107.23038918 279.69234477 108.28271484 289.72363281 C108.35320258 290.39669779 108.42369032 291.06976276 108.49631405 291.76322365 C108.83119859 294.95434242 109.16985488 298.14499984 109.5136261 301.33517456 C109.63247665 302.45578278 109.75132721 303.57639099 109.8737793 304.73095703 C109.97917526 305.70888214 110.08457123 306.68680725 110.19316101 307.69436646 C110.40801515 310.27871186 110.43358947 312.80693724 110.41796875 315.3984375 C143.03038632 315.36208945 175.64268893 315.30538026 208.25501454 315.22051655 C212.11117143 315.21049991 215.96732873 315.20065564 219.82348633 315.19091797 C220.59113028 315.1889766 221.35877424 315.18703522 222.14968013 315.18503502 C234.55527316 315.15407165 246.96084771 315.13705022 259.36647207 315.12524328 C272.10974679 315.11280229 284.85292509 315.0852347 297.59613889 315.04382443 C305.45008094 315.01877307 313.30386293 315.00531408 321.15784549 315.00700793 C327.19526281 315.00704139 333.2324245 314.98595952 339.26978111 314.95726967 C341.73551676 314.94879184 344.20128653 314.94700623 346.66703033 314.95263481 C371.04705828 315.10061801 371.04705828 315.10061801 392.41796875 304.3984375 C393.28421875 303.8209375 394.15046875 303.2434375 395.04296875 302.6484375 C404.23876635 293.93662925 408.09799122 282.97174533 410.609375 270.8671875 C411.41796875 268.3984375 411.41796875 268.3984375 414.41796875 266.3984375 C418.10546875 266.7734375 418.10546875 266.7734375 421.41796875 267.3984375 C423.57980575 272.3861043 423.33483516 275.91901418 421.91796875 281.0234375 C421.72855713 281.7256543 421.53914551 282.42787109 421.34399414 283.15136719 C416.75674022 299.29585556 407.04196566 311.97104945 392.41796875 320.3984375 C381.79257661 326.03517035 372.38612446 327.70107363 360.43814087 327.6499939 C359.25806564 327.65296404 358.07799041 327.65593417 356.86215532 327.65899432 C353.60862076 327.66528378 350.35523365 327.66275082 347.10170364 327.65647554 C343.58422752 327.65192213 340.06677276 327.65899216 336.54930115 327.66477966 C330.45985759 327.67339465 324.37044308 327.67522513 318.28099442 327.67283249 C309.46479777 327.66972833 300.64866505 327.68139655 291.83248453 327.69738229 C277.51137562 327.72332049 263.19026666 327.74335151 248.86914062 327.75683594 C247.58467151 327.75805149 247.58467151 327.75805149 246.27425353 327.7592916 C234.12303187 327.77051241 221.97181478 327.77579445 209.82058863 327.77867873 C208.96488228 327.77888272 208.10917592 327.77908671 207.22753906 327.77929688 C205.9455524 327.77959678 205.9455524 327.77959678 204.63766702 327.77990274 C190.37088766 327.78363945 176.10417778 327.80274931 161.83743322 327.83439124 C153.04699624 327.85327307 144.25673768 327.85928759 135.46628605 327.84857406 C129.44007063 327.84224112 123.4139829 327.85033432 117.38779546 327.86962818 C113.91495899 327.88027892 110.44243286 327.88451511 106.96959877 327.87115669 C103.19669012 327.8600137 99.42462153 327.87349424 95.65176392 327.89291382 C94.02230833 327.87922683 94.02230833 327.87922683 92.35993445 327.86526334 C84.05181343 327.94821191 75.87241439 329.54732463 69.04296875 334.5859375 C62.03662127 342.09273837 59.97794459 349.65359388 60.08203125 359.75 C60.76324911 367.14834278 63.9237086 372.32184242 69.29296875 377.3359375 C76.21386559 382.86484945 83.381212 384.51940758 92.17666912 384.52872276 C93.87429348 384.53415928 93.87429348 384.53415928 95.60621327 384.53970563 C96.83957521 384.53863738 98.07293716 384.53756913 99.34367371 384.53646851 C100.66158742 384.53928979 101.97950113 384.54211107 103.33735162 384.54501784 C106.9893143 384.55275393 110.64125817 384.55438933 114.29322803 384.55506897 C118.23391786 384.55691164 122.17459676 384.56451994 126.11528015 384.57154846 C132.9414322 384.58306424 139.76758178 384.59131347 146.59374046 384.59766769 C157.37804669 384.60799702 168.16232216 384.62855976 178.9466095 384.65078735 C182.6361226 384.65826651 186.32563584 384.66568026 190.01514912 384.67307472 C190.93710968 384.67492529 191.85907025 384.67677585 192.80896902 384.6786825 C203.29899394 384.69960126 213.78902224 384.7184354 224.27905273 384.73632812 C225.71724976 384.7387854 225.71724976 384.7387854 227.18450127 384.74129231 C242.74055069 384.76760758 258.2966025 384.78623569 273.85266479 384.80292003 C289.81884247 384.82032117 305.78497338 384.8491419 321.75111371 384.8878094 C331.60311594 384.91124126 341.45504195 384.92520681 351.30707226 384.92713703 C358.05182372 384.92924126 364.7964992 384.94212712 371.54121657 384.96361636 C375.43626182 384.97568066 379.33115619 384.98277332 383.22621918 384.97690392 C387.44203361 384.97066458 391.65743903 384.98736642 395.87321472 385.00643921 C397.73329588 384.99814467 397.73329588 384.99814467 399.63095444 384.98968256 C400.75488077 384.9985224 401.8788071 385.00736224 403.0367918 385.01646996 C404.01055978 385.01782648 404.98432775 385.01918301 405.98760384 385.02058065 C408.41796875 385.3984375 408.41796875 385.3984375 410.23085481 386.73481047 C412.07731999 389.32245541 411.80318419 391.316714 411.41796875 394.3984375 C410.41870117 396.05395508 410.41870117 396.05395508 408.41796875 397.3984375 C405.55531415 397.72964292 402.89830271 397.88707842 400.03125 397.91015625 C399.21424118 397.92810745 398.39723236 397.94605865 397.5554657 397.96455383 C394.94718581 398.01871538 392.3390895 398.05257058 389.73046875 398.0859375 C387.96156296 398.11910549 386.19268142 398.15359467 384.42382812 398.18945312 C380.08867402 398.27444496 375.75357491 398.34122785 371.41796875 398.3984375 C371.89645264 398.99954346 372.37493652 399.60064941 372.86791992 400.2199707 C373.49674072 401.01749756 374.12556152 401.81502441 374.7734375 402.63671875 C375.39629639 403.42344971 376.01915527 404.21018066 376.66088867 405.02075195 C384.53647066 415.67801094 386.5478317 428.53156031 384.85546875 441.5234375 C382.14065237 454.95463432 374.22252511 465.77848583 362.91796875 473.3359375 C351.53834372 480.02520532 339.00331275 482.02617561 326 479.11328125 C313.3250318 475.60417508 303.4939361 468.63356124 296.41796875 457.3984375 C290.03063834 445.18785261 288.44813231 432.65108019 291.06640625 419.0234375 C293.57581426 411.645349 297.89110391 403.92530234 303.41796875 398.3984375 C259.19796875 398.3984375 214.97796875 398.3984375 169.41796875 398.3984375 C171.72796875 401.0384375 174.03796875 403.6784375 176.41796875 406.3984375 C183.68591286 417.84087582 185.23980437 430.8338005 182.73046875 444.0078125 C180.7551117 451.02033003 177.83950088 456.64072808 173.41796875 462.3984375 C172.84046875 463.2646875 172.26296875 464.1309375 171.66796875 465.0234375 C163.15610324 474.00818442 151.6810854 479.36725693 139.41796875 480.3984375 C124.19596863 480.55464959 112.23133419 475.98756893 101.16796875 465.5859375 C92.6303084 456.6078423 88.31559267 444.72477895 87.91796875 432.3984375 C88.34627276 419.54931714 93.02727136 407.32364774 102.41796875 398.3984375 C101.7537793 398.39432861 101.08958984 398.39021973 100.40527344 398.38598633 C83.14746335 398.19892196 69.5973252 397.42180293 56.73828125 384.7421875 C48.12832993 375.31836019 45.70720471 364.27464147 46.05078125 351.76171875 C46.74927427 340.41987643 52.11788166 331.87257792 60.41796875 324.3984375 C70.05614331 316.67480695 79.49541654 314.33739338 91.68359375 314.37890625 C93.29669434 314.38313599 93.29669434 314.38313599 94.94238281 314.38745117 C95.75932617 314.39107666 96.57626953 314.39470215 97.41796875 314.3984375 C94.39871173 283.53515439 91.37576978 252.67223489 88.34772492 221.80981283 C87.98976462 218.16137855 87.63183554 214.5129412 87.27392578 210.86450195 C87.20267565 210.13820198 87.13142551 209.41190202 87.05801629 208.66359296 C85.90632688 196.922892 84.75716412 185.18194505 83.60894455 173.4409043 C82.42960353 161.38221756 81.2475253 149.32380137 80.06293666 137.26562899 C79.39811892 130.49751324 78.73454174 123.72928074 78.07413101 116.96073341 C77.45180254 110.58377754 76.82608421 104.20716317 76.19781876 97.83078957 C75.96841934 95.49655257 75.74023483 93.1621958 75.51338959 90.8277092 C72.55926686 55.91826841 72.55926686 55.91826841 53.41796875 27.3984375 C38.74013781 16.41177706 25.01224811 14.10590401 7.04272461 13.94213867 C5.04653839 13.92049013 3.0505788 13.88041467 1.0546875 13.83984375 C-0.71322144 13.81966187 -0.71322144 13.81966187 -2.5168457 13.79907227 C-5.84779542 13.36370082 -7.27602533 12.81686339 -9.58203125 10.3984375 C-10.31749303 4.5147433 -10.31749303 4.5147433 -8.46606445 1.70458984 C-5.66472009 -0.23751102 -3.38198604 0.00958522 0 0 Z " fill="#F9C19B" transform="translate(36.58203125,18.6015625)"/>
<path d="M0 0 C7.58050086 -0.07614689 15.16090284 -0.1286408 22.74169922 -0.16479492 C25.31986171 -0.17986905 27.89799862 -0.20033167 30.47607422 -0.22631836 C34.18463461 -0.26276086 37.89285554 -0.27974052 41.6015625 -0.29296875 C42.75177887 -0.30845261 43.90199524 -0.32393646 45.08706665 -0.33988953 C52.39100982 -0.34142101 56.93497643 0.37283694 62.625 5.25 C67.58675351 10.99518827 69.35722528 14.58240953 69.22045898 22.04467773 C68.7934835 27.7684189 67.56165386 33.3307425 66.375 38.9375 C66.10387234 40.25141847 65.83337502 41.56546716 65.56347656 42.87963867 C62.67940119 56.83618552 59.56778579 70.74485133 56.39794922 84.63891602 C56.2176416 85.43612061 56.03733398 86.2333252 55.8515625 87.0546875 C55.69510254 87.74159668 55.53864258 88.42850586 55.37744141 89.13623047 C54.81972552 91.89017813 54.6108098 94.21080356 55 97 C55.680625 97.598125 56.36125 98.19625 57.0625 98.8125 C59 101 59 101 58.80859375 104.73828125 C57.91073677 111.35242795 56.42844394 117.85940901 55 124.375 C54.72671875 125.64472656 54.4534375 126.91445313 54.171875 128.22265625 C52.14941109 137.55176672 52.14941109 137.55176672 51 141 C47.4375 142.1875 47.4375 142.1875 44 143 C43.87044922 144.09054687 43.87044922 144.09054687 43.73828125 145.203125 C41.62452942 160.3290555 35.56835912 172.58218844 23.1875 181.9375 C15.37395804 187.02851093 5.71410563 190.12759306 -3.64452076 190.12304783 C-5.00752771 190.1260344 -5.00752771 190.1260344 -6.39807016 190.12908131 C-7.38737061 190.12616847 -8.37667106 190.12325563 -9.39595032 190.12025452 C-10.98269327 190.12153615 -10.98269327 190.12153615 -12.60149163 190.12284368 C-16.15141847 190.12449277 -19.70129821 190.11898639 -23.2512207 190.11352539 C-25.7937978 190.11324337 -28.33637498 190.11340154 -30.87895203 190.1139679 C-36.35570692 190.11419573 -41.83244661 190.1113565 -47.30919838 190.10573006 C-55.22764426 190.09760048 -63.14608437 190.09499834 -71.06453397 190.09374207 C-83.9119224 190.09155384 -96.75930447 190.08489997 -109.60668945 190.07543945 C-122.08618132 190.06625941 -134.56567146 190.05918147 -147.04516602 190.05493164 C-147.81449726 190.05466892 -148.5838285 190.05440619 -149.37647281 190.05413551 C-153.23601001 190.05283046 -157.09554722 190.05156676 -160.95508444 190.05032361 C-192.97006091 190.03995814 -224.98502957 190.02234605 -257 190 C-257.48128247 186.20859884 -257.95963127 182.41683282 -258.4375 178.625 C-258.57220703 177.56410156 -258.70691406 176.50320313 -258.84570312 175.41015625 C-261.15200302 157.07225954 -261.15200302 157.07225954 -261.0625 149.375 C-261.05347656 148.35148438 -261.04445313 147.32796875 -261.03515625 146.2734375 C-261.02355469 145.52320313 -261.01195312 144.77296875 -261 144 C-256.65108903 145.33262593 -252.82337348 147.05260145 -248.8125 149.1875 C-232.23041123 157.63115396 -215.27918831 161.84640202 -197 165 C-196.060354 165.18030762 -195.12070801 165.36061523 -194.15258789 165.54638672 C-190.48296206 166.07439452 -186.87108195 166.17984698 -183.171875 166.203125 C-182.42984329 166.21018463 -181.68781158 166.21724426 -180.92329407 166.22451782 C-158.7717773 166.55593568 -158.7717773 166.55593568 -137 163 C-135.73978027 162.67805664 -135.73978027 162.67805664 -134.45410156 162.34960938 C-106.76903212 155.15327554 -80.90616739 143.60905596 -59.49951172 124.34375 C-58.03787059 123.03393678 -56.55236516 121.75090895 -55.06640625 120.46875 C-48.62334014 114.82101382 -43.19466346 108.80316331 -38 102 C-37.57219238 101.4524707 -37.14438477 100.90494141 -36.70361328 100.34082031 C-16.55319091 74.49429367 -3.68182309 42.66641755 -0.87890625 9.92578125 C-0.7489325 8.48555603 -0.7489325 8.48555603 -0.61633301 7.01623535 C-0.40600465 4.67787893 -0.20064738 2.33920352 0 0 Z " fill="#FCEBDF" transform="translate(404,144)"/>
<path d="M0 0 C8.34478968 5.94055657 14.2566452 13.08813985 17 23 C18.09890195 35.21570074 16.61692675 45.38931677 8.76171875 55.18359375 C5.57716049 58.46700747 1.98582015 60.79405471 -2 63 C-2.90492188 63.51240234 -2.90492188 63.51240234 -3.828125 64.03515625 C-11.52034997 67.63043531 -21.92470629 67.21206483 -29.9375 64.875 C-38.48641274 61.42656428 -46.24642857 54.58836915 -50.32421875 46.3125 C-53.7016695 37.40077031 -55.07370902 27.15420144 -51.375 18.125 C-50.6303763 16.72396586 -49.83808854 15.34720775 -49 14 C-48.57589844 13.31421875 -48.15179688 12.6284375 -47.71484375 11.921875 C-43.06422395 5.1337837 -36.31265287 -1.02890267 -28.34765625 -3.5625 C-18.65381824 -5.36900559 -8.80516397 -4.54263646 0 0 Z " fill="#FDF9F5" transform="translate(392,420)"/>
<path d="M0 0 C7.48657118 5.23430859 13.78052495 13.3148745 15.41796875 22.48828125 C15.52625 23.51501953 15.52625 23.51501953 15.63671875 24.5625 C15.72953125 25.38105469 15.82234375 26.19960938 15.91796875 27.04296875 C16.47946127 36.77082667 13.22962421 45.81195503 7.19921875 53.4375 C-0.28784379 60.99440454 -9.27769251 65.21629432 -19.86328125 65.4375 C-29.41004705 65.24861543 -37.382438 61.85250711 -44.64453125 55.59765625 C-53.0449688 46.60989997 -54.77137402 37.38405585 -54.57421875 25.48046875 C-54.32443726 20.84100878 -53.66080812 17.56351638 -51.36328125 13.5625 C-50.97269531 12.82773437 -50.58210937 12.09296875 -50.1796875 11.3359375 C-46.43976312 5.0003149 -41.68129761 1.22238703 -35.36328125 -2.4375 C-34.73808594 -2.79972656 -34.11289063 -3.16195313 -33.46875 -3.53515625 C-22.61601877 -8.61867959 -9.78109939 -5.94949517 0 0 Z " fill="#FDF9F5" transform="translate(192.36328125,421.4375)"/>
<path d="M0 0 C2.02811776 2.41530754 3.27852294 5.16260717 4.625 8 C5.25015503 9.25151855 5.25015503 9.25151855 5.88793945 10.52832031 C7.28317064 13.34085994 8.64272439 16.16896443 10 19 C11.02157698 21.09923019 12.04372697 23.1981816 13.06640625 25.296875 C15.62626842 30.57211807 18.14202966 35.86719609 20.64746094 41.16845703 C21.85585392 43.69822993 23.09366423 46.20942951 24.3515625 48.71484375 C24.68905518 49.39901367 25.02654785 50.08318359 25.37426758 50.78808594 C26.23657255 52.53378791 27.11181341 54.27308441 27.98828125 56.01171875 C29.17111308 59.50541123 29.02166955 61.48203439 28 65 C26 67 26 67 22.5625 67.3125 C19 67 19 67 17.40643311 65.72210693 C15.93600669 63.9216434 14.94693574 62.2246994 13.93457031 60.13378906 C13.55697571 59.3615802 13.1793811 58.58937134 12.79034424 57.79376221 C12.39031189 56.95947693 11.99027954 56.12519165 11.578125 55.265625 C11.15505066 54.3954071 10.73197632 53.52518921 10.29608154 52.62860107 C8.94155647 49.83851735 7.59581199 47.04429516 6.25 44.25 C5.35991976 42.41510023 4.46930015 40.58046199 3.578125 38.74609375 C1.84370276 35.17254578 0.12129377 31.59358513 -1.59179688 28.00976562 C-3.10948297 24.83598144 -4.65526675 21.67976528 -6.23632812 18.53710938 C-6.89199146 17.20706298 -7.54759474 15.87698698 -8.203125 14.546875 C-8.77192383 13.41604492 -9.34072266 12.28521484 -9.92675781 11.12011719 C-11.15446057 7.55095404 -11.03535105 5.59846041 -10 2 C-6.87829314 -1.58418195 -4.36421857 -1.48003934 0 0 Z " fill="#F9C19B" transform="translate(225,14)"/>
<path d="M0 0 C2.23816135 3.35724203 2.20467509 4.80863648 1.59277344 8.70263672 C0.4497221 13.13266683 -1.7414492 17.03980346 -3.875 21.0625 C-4.87834468 23.00675976 -5.87957904 24.95210975 -6.87890625 26.8984375 C-7.39469238 27.89842773 -7.91047852 28.89841797 -8.44189453 29.92871094 C-11.46158757 35.88103597 -14.28347066 41.92909561 -17.11865234 47.97094727 C-20.18253636 54.44755016 -23.51002017 60.74306705 -27 67 C-33.0546875 67.1953125 -33.0546875 67.1953125 -35 67 C-37 65 -37 65 -37.43066406 61.54882812 C-37.27136789 55.82382036 -34.66646147 51.2317104 -32.109375 46.21875 C-31.60835266 45.20582886 -31.10733032 44.19290771 -30.59112549 43.14929199 C-28.99215678 39.9252733 -27.3715377 36.71271674 -25.75 33.5 C-24.67433141 31.34056534 -23.60009758 29.18041537 -22.52734375 27.01953125 C-20.11338633 22.16468556 -17.68670832 17.31652418 -15.24304199 12.4765625 C-14.43347674 10.86363312 -13.63201422 9.24660304 -12.83996582 7.625 C-9.62099613 1.0456732 -7.70477709 -2.34493216 0 0 Z " fill="#F9C19B" transform="translate(363,14)"/>
<path d="M0 0 C2.8125 1 2.8125 1 4.8125 4 C5.07319641 6.65637207 5.07319641 6.65637207 5.0871582 9.89257812 C5.09669022 11.10393433 5.10622223 12.31529053 5.11604309 13.56335449 C5.11513168 14.87276001 5.11422028 16.18216553 5.11328125 17.53125 C5.1171683 18.88741182 5.12150299 20.24357242 5.12626648 21.59973145 C5.13372624 24.44103952 5.13343893 27.28222332 5.12817383 30.12353516 C5.1223747 33.76548912 5.13932138 37.40693526 5.1625185 41.04880524 C5.17724512 43.84892757 5.17812913 46.64892723 5.17500877 49.44908142 C5.17577215 51.44495887 5.18965185 53.44081728 5.20368958 55.43664551 C5.19746078 56.64800171 5.19123199 57.85935791 5.18481445 59.10742188 C5.18544388 60.17536987 5.1860733 61.24331787 5.1867218 62.34362793 C4.8125 65 4.8125 65 3.50798035 66.84094238 C0.62564453 68.81135347 -1.82792116 68.41994736 -5.1875 68 C-8.30092749 64.93639521 -8.57234924 62.47569302 -8.60742188 58.20922852 C-8.62333374 57.04444473 -8.63924561 55.87966095 -8.65563965 54.67958069 C-8.65594177 52.79824684 -8.65594177 52.79824684 -8.65625 50.87890625 C-8.66386353 49.58685776 -8.67147705 48.29480927 -8.67932129 46.96360779 C-8.69275443 44.23077712 -8.69434033 41.49823527 -8.68847656 38.76538086 C-8.68258104 35.27014871 -8.7131677 31.77630596 -8.75359344 28.28134251 C-8.78572119 24.93881983 -8.78135414 21.59658284 -8.78125 18.25390625 C-8.79764526 17.00170792 -8.81404053 15.74950958 -8.83093262 14.45936584 C-8.75400405 4.80395655 -8.75400405 4.80395655 -5.84960938 1.67163086 C-3.1875 0 -3.1875 0 0 0 Z " fill="#F8C19B" transform="translate(291.1875,13)"/>
</svg>
